<?xml version="1.0" encoding="UTF-8"?>
<svg version="1.1" xmlns="http://www.w3.org/2000/svg" width="854" height="398">
<path d="M0 0 C1.31476318 -0.00953201 2.62952637 -0.01906403 3.98413086 -0.02888489 C5.42561876 -0.02862349 6.86710667 -0.02768662 8.30859375 -0.02612305 C9.78068158 -0.03000819 11.25276828 -0.03434248 12.72485352 -0.03910828 C15.81172315 -0.04657593 18.89847843 -0.04627506 21.98535156 -0.04101562 C25.94690275 -0.03521645 29.9079871 -0.05215968 33.86946106 -0.0753603 C36.90973664 -0.09006975 39.94989901 -0.09097325 42.99020386 -0.08785057 C44.45108974 -0.08836507 45.91198175 -0.09362686 47.37283325 -0.10366249 C49.41258194 -0.11595595 51.45242466 -0.10731978 53.4921875 -0.09765625 C54.65419678 -0.09828568 55.81620605 -0.0989151 57.01342773 -0.0995636 C57.91520752 0.0239296 58.8169873 0.14742279 59.74609375 0.2746582 C61.74609375 3.2746582 61.74609375 3.2746582 61.74609375 8.2746582 C66.03609375 8.2746582 70.32609375 8.2746582 74.74609375 8.2746582 C74.74609375 34.6746582 74.74609375 61.0746582 74.74609375 88.2746582 C87.87909575 88.15630847 87.87909575 88.15630847 101.01171875 88.00439453 C102.67317116 87.99562259 104.33463009 87.98798033 105.99609375 87.98168945 C106.84042969 87.96634155 107.68476563 87.95099365 108.5546875 87.93518066 C115.54622576 87.93213203 122.03110848 89.24116845 127.49609375 93.9621582 C128.0271875 94.39915039 128.55828125 94.83614258 129.10546875 95.28637695 C134.34525452 101.63649828 135.32981925 107.66060583 135.25402832 115.71179199 C135.26026828 116.73795451 135.26650825 117.76411702 135.2729373 118.82137537 C135.2888435 122.24679456 135.27627181 125.67149983 135.26367188 129.09692383 C135.26909402 131.55800287 135.27621719 134.01907866 135.28491211 136.48014832 C135.30124584 142.4629414 135.29887217 148.44545614 135.28726155 154.42823827 C135.27821448 159.29212615 135.27700871 164.1559578 135.28135681 169.01985168 C135.28196974 169.71307365 135.28258268 170.40629562 135.28321418 171.12052432 C135.28449313 172.52895321 135.28578998 173.93738209 135.28710455 175.34581095 C135.2985007 188.54128441 135.28541183 201.73664658 135.26390308 214.93210179 C135.24603294 226.24539897 135.24913732 237.55853195 135.26757812 248.87182617 C135.28900193 262.02125865 135.29740216 275.17059368 135.28512907 288.32004118 C135.28385492 289.72318235 135.28259744 291.12632353 135.28135681 292.52946472 C135.28043116 293.56492384 135.28043116 293.56492384 135.27948681 294.62130132 C135.27603842 299.47727916 135.28185117 304.33319498 135.29127502 309.18916321 C135.3036888 315.72932762 135.29480424 322.26923041 135.271698 328.80938148 C135.26641185 331.20873309 135.26792302 333.60811081 135.27674866 336.00745201 C135.28769085 339.28449412 135.27395521 342.56054531 135.25402832 345.83752441 C135.26295121 346.78539275 135.27187409 347.73326108 135.28106737 348.7098527 C135.19932324 355.64786104 133.58188962 360.91004259 129.0703125 366.26293945 C128.53019531 366.69993164 127.99007812 367.13692383 127.43359375 367.5871582 C126.63501953 368.26198242 126.63501953 368.26198242 125.8203125 368.95043945 C119.52858748 372.96719045 114.63176984 373.69229831 107.30859375 373.4621582 C106.48166016 373.44862305 105.65472656 373.43508789 104.80273438 373.42114258 C102.78356735 373.38612812 100.76474057 373.33233383 98.74609375 373.2746582 C98.74609375 377.2346582 98.74609375 381.1946582 98.74609375 385.2746582 C97.42609375 385.2746582 96.10609375 385.2746582 94.74609375 385.2746582 C94.66359375 386.1615332 94.58109375 387.0484082 94.49609375 387.9621582 C93.49842697 392.36851984 91.59590081 394.88730291 87.99609375 397.5871582 C82.88316194 399.14944292 79.10227496 398.96554297 74.43359375 396.5871582 C71.73253455 394.26299099 70.20281842 392.51182413 68.74609375 389.2746582 C68.74609375 387.9546582 68.74609375 386.6346582 68.74609375 385.2746582 C67.09609375 385.2746582 65.44609375 385.2746582 63.74609375 385.2746582 C63.74609375 381.3146582 63.74609375 377.3546582 63.74609375 373.2746582 C39.32609375 373.2746582 14.90609375 373.2746582 -10.25390625 373.2746582 C-10.25390625 377.2346582 -10.25390625 381.1946582 -10.25390625 385.2746582 C-11.90390625 385.2746582 -13.55390625 385.2746582 -15.25390625 385.2746582 C-15.33640625 386.1615332 -15.41890625 387.0484082 -15.50390625 387.9621582 C-16.50157303 392.36851984 -18.40409919 394.88730291 -22.00390625 397.5871582 C-27.11683806 399.14944292 -30.89772504 398.96554297 -35.56640625 396.5871582 C-38.26746545 394.26299099 -39.79718158 392.51182413 -41.25390625 389.2746582 C-41.25390625 387.9546582 -41.25390625 386.6346582 -41.25390625 385.2746582 C-42.57390625 385.2746582 -43.89390625 385.2746582 -45.25390625 385.2746582 C-45.25390625 381.3146582 -45.25390625 377.3546582 -45.25390625 373.2746582 C-46.43726563 373.33266602 -47.620625 373.39067383 -48.83984375 373.45043945 C-59.02890181 373.80293861 -67.21739944 373.84194075 -75.11328125 366.55981445 C-80.93529341 360.22491074 -81.54834665 354.54213861 -81.52133179 346.19828796 C-81.5258629 345.17468872 -81.53039401 344.15108948 -81.53506243 343.09647208 C-81.54773632 339.66192526 -81.54608411 336.2275364 -81.54443359 332.79296875 C-81.55041697 330.33233435 -81.55722208 327.87170182 -81.56478882 325.41107178 C-81.58063778 319.41792177 -81.58689806 313.42483401 -81.58801357 307.43166884 C-81.58896441 302.55913902 -81.59307645 297.68662217 -81.59941483 292.81409645 C-81.61702564 278.99443629 -81.62625399 265.17480717 -81.62475388 251.3551357 C-81.62467397 250.61032862 -81.62459405 249.86552153 -81.62451172 249.09814453 C-81.62442996 248.35242621 -81.6243482 247.6067079 -81.62426396 246.83839206 C-81.62345118 234.75488966 -81.64258718 222.67151195 -81.67078845 210.58804562 C-81.6995281 198.1757836 -81.71332814 185.76358237 -81.7116009 173.35128623 C-81.71093735 166.38475358 -81.716414 159.41835164 -81.737957 152.45184898 C-81.75808985 145.89943816 -81.75748403 139.34725608 -81.74292374 132.79481506 C-81.74083084 130.390619 -81.74556504 127.98640578 -81.75764465 125.58223915 C-81.77307432 122.2984941 -81.76380304 119.01570378 -81.74838257 115.73197937 C-81.75866969 114.78206468 -81.76895682 113.83214999 -81.77955568 112.85345 C-81.70745809 105.89909294 -80.07157321 100.68940221 -75.61328125 95.28637695 C-75.0821875 94.84938477 -74.55109375 94.41239258 -74.00390625 93.9621582 C-73.483125 93.51227539 -72.96234375 93.06239258 -72.42578125 92.59887695 C-65.78928776 88.55252571 -59.87357533 87.84719058 -52.28515625 87.98168945 C-51.46756836 87.98471069 -50.64998047 87.98773193 -49.80761719 87.99084473 C-46.78958284 88.00639438 -43.7717302 88.048277 -40.75390625 88.0871582 C-33.98890625 88.1490332 -27.22390625 88.2109082 -20.25390625 88.2746582 C-20.25390625 61.8746582 -20.25390625 35.4746582 -20.25390625 8.2746582 C-16.29390625 8.2746582 -12.33390625 8.2746582 -8.25390625 8.2746582 C-8.25390625 6.2946582 -8.25390625 4.3146582 -8.25390625 2.2746582 C-5.4900655 -0.48918254 -3.87083056 0.01534793 0 0 Z M-13.25390625 16.2746582 C-13.25390625 40.0346582 -13.25390625 63.7946582 -13.25390625 88.2746582 C13.14609375 88.2746582 39.54609375 88.2746582 66.74609375 88.2746582 C66.74609375 64.5146582 66.74609375 40.7546582 66.74609375 16.2746582 C65.09609375 16.2746582 63.44609375 16.2746582 61.74609375 16.2746582 C61.41609375 17.9246582 61.08609375 19.5746582 60.74609375 21.2746582 C38.63609375 21.2746582 16.52609375 21.2746582 -6.25390625 21.2746582 C-6.91390625 19.6246582 -7.57390625 17.9746582 -8.25390625 16.2746582 C-9.90390625 16.2746582 -11.55390625 16.2746582 -13.25390625 16.2746582 Z M-32.25390625 159.2746582 C-33.60303453 161.97291476 -33.3922564 164.07778508 -33.4078064 167.10017395 C-33.41640686 168.34099228 -33.42500732 169.58181061 -33.43386841 170.86022949 C-33.43830376 172.2429195 -33.44260211 173.62560996 -33.44677734 175.00830078 C-33.45467744 176.45859474 -33.46294633 177.90888673 -33.47155762 179.35917664 C-33.4977874 184.12916178 -33.51308569 188.89915576 -33.52734375 193.66918945 C-33.53270294 195.31034539 -33.53808045 196.95150127 -33.5434761 198.59265709 C-33.56510578 205.41852082 -33.58384317 212.24438216 -33.5950985 219.07027149 C-33.61134228 228.85754701 -33.64452911 238.64442581 -33.70149934 248.43155175 C-33.74017876 255.31059428 -33.75972877 262.1895306 -33.76501906 269.06867903 C-33.76867517 273.17868018 -33.78072328 277.28825829 -33.8131218 281.39814186 C-33.8431679 285.26505487 -33.84952711 289.13128813 -33.83773804 292.99829292 C-33.83751701 294.41688316 -33.84584644 295.83550461 -33.86339188 297.25398636 C-34.36578781 305.55049723 -34.36578781 305.55049723 -30.84854126 312.6179657 C-26.79687422 315.20498329 -24.99741182 314.95230186 -20.25390625 314.2746582 C-17.4115637 312.15466291 -16.37949048 310.97454221 -15.74774837 307.45382786 C-15.74494145 306.35785754 -15.74213453 305.26188723 -15.73924255 304.13270569 C-15.7265181 302.87230972 -15.71379364 301.61191376 -15.70068359 300.31332397 C-15.70686588 298.91900447 -15.7134719 297.5246868 -15.72045898 296.13037109 C-15.71340068 294.66007114 -15.70465604 293.18977846 -15.6943512 291.71949768 C-15.67183639 287.72767168 -15.67480175 283.73624177 -15.68367267 279.74437642 C-15.68878063 276.41179441 -15.68149152 273.07928696 -15.67420059 269.74671263 C-15.65719477 261.88462372 -15.66077402 254.02272887 -15.67749023 246.16064453 C-15.69441192 238.05002597 -15.67857824 229.93994559 -15.64626735 221.82938582 C-15.61957513 214.86533756 -15.61229444 207.90145688 -15.62078243 200.93736261 C-15.62571284 196.77826555 -15.62349025 192.61949232 -15.60299492 188.46043587 C-15.58464334 184.54909848 -15.5905891 180.63853534 -15.61519432 176.72723961 C-15.62020405 175.2925518 -15.61670805 173.85780505 -15.60404587 172.42316437 C-15.58811821 170.46335911 -15.60608562 168.50336602 -15.62571716 166.54359436 C-15.62630347 165.44724702 -15.62688978 164.35089968 -15.62749386 163.22132969 C-16.463609 159.28820721 -18.1708311 157.76994061 -21.25390625 155.2746582 C-26.31043675 154.32655873 -28.64660505 155.77042275 -32.25390625 159.2746582 Z M18.74609375 159.2746582 C17.59577052 162.54516011 17.61548701 165.69305198 17.60565186 169.1374054 C17.59994171 170.33601196 17.59423157 171.53461853 17.58834839 172.76954651 C17.58723053 174.0813237 17.58611267 175.39310089 17.58496094 176.74462891 C17.58033063 178.1427117 17.57530568 179.54079322 17.56991577 180.93887329 C17.55681054 184.73443946 17.55035052 188.52998795 17.54590511 192.32557321 C17.54297145 194.69825938 17.53886609 197.07094075 17.53440094 199.4436245 C17.52073115 206.87120838 17.51106187 214.29878125 17.50719905 221.72637683 C17.50271899 230.29310296 17.48517138 238.85966948 17.45619845 247.42634708 C17.43456585 254.05323719 17.42449393 260.68008245 17.42315793 267.30700749 C17.42211106 271.26266475 17.41622844 275.21817187 17.39833832 279.17379189 C17.38183016 282.89616476 17.3797153 286.61827505 17.38847733 290.34067154 C17.38961178 292.35152855 17.37591578 294.36237695 17.36172485 296.3731842 C17.39100823 302.72010551 17.45962348 307.74561221 20.74609375 313.2746582 C23.90405482 314.85363874 27.35280011 315.09393991 30.74609375 314.2746582 C33.31134389 312.63959217 34.30885747 311.87749485 35.74609375 309.2746582 C36.52291626 304.60642924 36.42994635 299.93519417 36.39306641 295.21630859 C36.39984478 293.76718548 36.40874916 292.31807099 36.4196167 290.86897278 C36.44239315 286.93902405 36.43358047 283.00973231 36.41772127 279.07977223 C36.40505108 274.96392516 36.41680571 270.84813386 36.4246521 266.73228455 C36.43374646 259.81963009 36.42176757 252.90724279 36.39794922 245.99462891 C36.37074891 238.00839053 36.37954466 230.02279061 36.40708125 222.03656775 C36.42979039 215.17522796 36.43296331 208.3140801 36.4198879 201.45271486 C36.41210185 197.35677311 36.41102805 193.26113117 36.42757034 189.16520882 C36.44204199 185.31291984 36.43194544 181.46145157 36.40309906 177.60925102 C36.39650198 176.19756812 36.39836247 174.78581584 36.40941238 173.37416077 C36.74126717 164.90743621 36.74126717 164.90743621 33.42440796 157.42698669 C30.84794043 155.00414013 30.84794043 155.00414013 27.24609375 154.6496582 C23.23318041 155.36624987 21.52977463 156.32723139 18.74609375 159.2746582 Z M69.74609375 159.2746582 C68.58242866 162.55655591 68.61543347 165.73043237 68.60565186 169.18882751 C68.59994171 170.39873856 68.59423157 171.6086496 68.58834839 172.85522461 C68.58710314 174.19287099 68.58597802 175.53051749 68.58496094 176.86816406 C68.58033077 178.27934397 68.57530584 179.69052262 68.56991577 181.10169983 C68.55681157 184.93225456 68.55035104 188.76279179 68.54590511 192.59336543 C68.54297205 194.98680719 68.53886687 197.38024419 68.53440094 199.77368355 C68.52073312 207.26319987 68.51106216 214.75270528 68.50719905 222.24223322 C68.50271562 230.88651935 68.4851516 239.53064758 68.45619845 248.17488569 C68.43458878 254.85864427 68.4244952 261.54235838 68.42315793 268.22615153 C68.42210967 272.21751483 68.41619711 276.20872955 68.39833832 280.20005608 C68.38186921 283.95361162 68.37969634 287.70690667 68.38847733 291.46048546 C68.38924825 292.83713224 68.38489766 294.21379296 68.37501907 295.59040451 C68.36231364 297.47139556 68.369963 299.35249112 68.37860107 301.23350525 C68.37713451 302.28560653 68.37566795 303.33770781 68.37415695 304.42169094 C68.92872301 308.67552872 70.75500769 311.28357214 73.74609375 314.2746582 C79.37153434 314.98047875 79.37153434 314.98047875 84.34214783 312.61938477 C88.67537019 308.07616428 87.42962541 301.05325273 87.37719727 295.20043945 C87.38233769 293.7496961 87.3896199 292.29895899 87.39888 290.84823608 C87.41738711 286.91420214 87.40446036 282.98084634 87.38478971 279.04684067 C87.3683959 274.92786631 87.37721711 270.80893466 87.38230896 266.68994141 C87.38682912 259.77308326 87.37096507 252.8564956 87.34301758 245.93969727 C87.31096588 237.94555339 87.31098157 229.95189736 87.32823235 221.95771885 C87.34410211 214.26418001 87.33736103 206.57081985 87.32029533 198.87728882 C87.3134269 195.60463702 87.31445511 192.33212853 87.32184029 189.05947876 C87.32950766 185.2048173 87.31736295 181.35071028 87.28999138 177.49614334 C87.28311109 176.08243073 87.28300583 174.6686663 87.29020691 173.25495529 C87.29891029 171.32361069 87.28049674 169.39220084 87.26075745 167.4609375 C87.25654706 165.84048775 87.25654706 165.84048775 87.25225163 164.18730164 C86.62377481 160.57078404 85.2658599 158.89438507 82.74609375 156.2746582 C77.50898874 153.6561057 73.61693026 155.29322636 69.74609375 159.2746582 Z " fill="#2A2A2A" transform="translate(81.25390625,-0.274658203125)"/>
<path d="M0 0 C1.99543012 1.42930108 3.8720611 2.79690667 5.60546875 4.53515625 C5.60546875 5.19515625 5.60546875 5.85515625 5.60546875 6.53515625 C6.26546875 6.53515625 6.92546875 6.53515625 7.60546875 6.53515625 C7.74984375 5.42140625 7.89421875 4.30765625 8.04296875 3.16015625 C8.60546875 -0.46484375 8.60546875 -0.46484375 9.60546875 -2.46484375 C12.91795062 -2.49372521 16.23040042 -2.51160174 19.54296875 -2.52734375 C20.48849609 -2.53572266 21.43402344 -2.54410156 22.40820312 -2.55273438 C23.75688477 -2.55756836 23.75688477 -2.55756836 25.1328125 -2.5625 C26.38179321 -2.57035522 26.38179321 -2.57035522 27.65600586 -2.57836914 C29.60546875 -2.46484375 29.60546875 -2.46484375 30.60546875 -1.46484375 C30.69415174 1.49220946 30.72067171 4.42580681 30.703125 7.3828125 C30.70171005 8.26923935 30.7002951 9.1556662 30.69883728 10.06895447 C30.6932209 12.91188879 30.68066566 15.75474556 30.66796875 18.59765625 C30.66295586 20.52018116 30.65839259 22.44270729 30.65429688 24.36523438 C30.64409523 29.08859589 30.62452312 33.81178883 30.60546875 38.53515625 C22.35546875 38.53515625 14.10546875 38.53515625 5.60546875 38.53515625 C4.28546875 34.90515625 2.96546875 31.27515625 1.60546875 27.53515625 C-1.66705424 24.26263326 -4.02649993 22.64038943 -8.64453125 22.28515625 C-14.17407473 22.65379248 -17.09723543 24.29819977 -21.08203125 28.09765625 C-26.16793554 34.74214411 -27.31558413 43.40970345 -26.39453125 51.53515625 C-25.14470855 58.08461476 -23.2524413 62.90857525 -18.39453125 67.53515625 C-14.09539599 70.16240558 -9.28986653 70.06950623 -4.39453125 69.53515625 C-0.92381321 68.67620301 -0.92381321 68.67620301 1.60546875 66.53515625 C3.05514777 62.96578455 3.05514777 62.96578455 3.60546875 59.53515625 C0.63546875 59.53515625 -2.33453125 59.53515625 -5.39453125 59.53515625 C-5.4213822 57.05591824 -5.44129672 54.57696785 -5.45703125 52.09765625 C-5.46541016 51.39060547 -5.47378906 50.68355469 -5.48242188 49.95507812 C-5.49106713 48.14822066 -5.44673136 46.34128022 -5.39453125 44.53515625 C-3.84951674 42.99014174 -2.40792905 43.40796494 -0.2578125 43.40576172 C0.61979736 43.40260956 1.49740723 43.3994574 2.40161133 43.39620972 C3.35575928 43.39823395 4.30990723 43.40025818 5.29296875 43.40234375 C6.26580811 43.40138702 7.23864746 43.4004303 8.2409668 43.39944458 C10.30224675 43.39876267 12.36352883 43.40061772 14.42480469 43.40478516 C17.59184563 43.41013325 20.75874475 43.40484053 23.92578125 43.3984375 C25.9231774 43.39909828 27.92057346 43.40037944 29.91796875 43.40234375 C30.8721167 43.40031952 31.82626465 43.39829529 32.80932617 43.39620972 C34.12574097 43.40093796 34.12574097 43.40093796 35.46875 43.40576172 C36.24516846 43.40655731 37.02158691 43.40735291 37.8215332 43.40817261 C39.60546875 43.53515625 39.60546875 43.53515625 40.60546875 44.53515625 C40.67860442 47.06565027 40.69794402 49.56820462 40.66796875 52.09765625 C40.66345703 52.80857422 40.65894531 53.51949219 40.65429688 54.25195312 C40.64247739 56.01305638 40.62454138 57.77411661 40.60546875 59.53515625 C38.62546875 59.53515625 36.64546875 59.53515625 34.60546875 59.53515625 C34.60546875 70.75515625 34.60546875 81.97515625 34.60546875 93.53515625 C25.36546875 93.53515625 16.12546875 93.53515625 6.60546875 93.53515625 C5.28546875 91.22515625 3.96546875 88.91515625 2.60546875 86.53515625 C2.06019531 86.94507813 1.51492188 87.355 0.953125 87.77734375 C-8.63350716 94.62727921 -16.80911306 95.40377209 -28.39453125 93.53515625 C-39.87532098 90.85272874 -48.51154383 84.0567974 -54.92578125 74.25390625 C-62.83961465 59.60489549 -63.20824248 43.016112 -58.64453125 27.296875 C-54.46326853 14.7138875 -46.93757712 5.07702121 -35.01953125 -1.02734375 C-23.9759163 -6.17034649 -10.62976947 -6.50271379 0 0 Z " fill="#2A2A2A" transform="translate(335.39453125,253.46484375)"/>
<path d="M0 0 C1.39120471 0.00015906 2.78241534 0.00585033 4.17358398 0.01586914 C4.90463852 0.01728409 5.63569305 0.01869904 6.38890076 0.02015686 C8.73253406 0.02577131 11.07607313 0.03832617 13.41967773 0.05102539 C15.00496282 0.05603853 16.59024939 0.06060176 18.17553711 0.06469727 C22.06945383 0.07574542 25.96329979 0.09301967 29.85717773 0.11352539 C29.88690674 1.9215564 29.88690674 1.9215564 29.91723633 3.76611328 C29.99359821 8.25964419 30.08226759 12.75286415 30.17456055 17.24609375 C30.21272432 19.18678628 30.24759869 21.1275465 30.27905273 23.06835938 C30.32497799 25.86621207 30.38292602 28.66360377 30.44311523 31.46118164 C30.45466644 32.32187759 30.46621765 33.18257355 30.4781189 34.0693512 C30.60001936 39.10202385 31.25082311 43.336734 32.85717773 48.11352539 C37.53603032 48.5409692 37.53603032 48.5409692 41.73217773 46.86352539 C43.91471701 43.4684643 44.01262706 39.86534189 44.17358398 35.91040039 C44.23642578 34.44086914 44.23642578 34.44086914 44.30053711 32.94165039 C44.33985352 31.92586914 44.37916992 30.91008789 44.41967773 29.86352539 C44.48445313 28.31665039 44.48445313 28.31665039 44.55053711 26.73852539 C44.65643456 24.19698669 44.75851217 21.65535343 44.85717773 19.11352539 C44.2190918 19.12512695 43.58100586 19.13672852 42.92358398 19.14868164 C42.09729492 19.15770508 41.27100586 19.16672852 40.41967773 19.17602539 C39.18411133 19.19342773 39.18411133 19.19342773 37.92358398 19.21118164 C35.85717773 19.11352539 35.85717773 19.11352539 34.85717773 18.11352539 C34.75730799 15.27017491 34.71839892 12.45655376 34.73217773 9.61352539 C34.72637695 8.41663086 34.72637695 8.41663086 34.72045898 7.19555664 C34.73057006 1.24013306 34.73057006 1.24013306 35.85717773 0.11352539 C38.52319313 0.02498192 41.16387173 -0.00179361 43.82983398 0.01586914 C44.53652222 0.01687622 45.24321045 0.0178833 45.97131348 0.0189209 C48.62078465 0.02416794 51.27023276 0.0381291 53.91967773 0.05102539 C59.83905273 0.07165039 65.75842773 0.09227539 71.85717773 0.11352539 C71.85717773 16.28352539 71.85717773 32.45352539 71.85717773 49.11352539 C73.83717773 49.11352539 75.81717773 49.11352539 77.85717773 49.11352539 C79.37927364 50.63562129 78.98677294 51.99562621 78.98999023 54.11352539 C78.9912793 54.91790039 78.99256836 55.72227539 78.99389648 56.55102539 C78.9900293 57.39665039 78.98616211 58.24227539 78.98217773 59.11352539 C78.98604492 59.95915039 78.98991211 60.80477539 78.99389648 61.67602539 C78.99260742 62.48040039 78.99131836 63.28477539 78.98999023 64.11352539 C78.9888623 64.85602539 78.98773438 65.59852539 78.98657227 66.36352539 C78.85717773 68.11352539 78.85717773 68.11352539 77.85717773 69.11352539 C75.93050266 69.20100746 74.00065912 69.22049873 72.07202148 69.21118164 C70.31728516 69.20634766 70.31728516 69.20634766 68.52709961 69.20141602 C67.29540039 69.19303711 66.06370117 69.1846582 64.79467773 69.17602539 C62.94132812 69.16925781 62.94132812 69.16925781 61.05053711 69.16235352 C57.98603657 69.15052147 54.92163052 69.13403712 51.85717773 69.11352539 C49.87717773 65.64852539 49.87717773 65.64852539 47.85717773 62.11352539 C47.37249023 62.59563477 46.88780273 63.07774414 46.38842773 63.57446289 C40.72328114 68.9127741 36.72756552 71.13303295 28.93139648 71.10180664 C19.85398656 70.59310995 13.46141971 68.71776736 6.85717773 62.11352539 C0.64467161 53.07175692 1.71902514 42.06673568 1.79467773 31.55102539 C1.79918945 30.35155273 1.80370117 29.15208008 1.80834961 27.91625977 C1.82004004 24.9819618 1.83642635 22.0477709 1.85717773 19.11352539 C-0.12282227 19.11352539 -2.10282227 19.11352539 -4.14282227 19.11352539 C-4.16966214 16.13429946 -4.18958264 13.15531244 -4.20532227 10.17602539 C-4.21370117 9.32588867 -4.22208008 8.47575195 -4.23071289 7.59985352 C-4.23393555 6.7909668 -4.2371582 5.98208008 -4.24047852 5.14868164 C-4.24571533 4.39981689 -4.25095215 3.65095215 -4.25634766 2.87939453 C-4.05285911 -0.28583695 -3.22005047 0.11631504 0 0 Z " fill="#2A2A2A" transform="translate(382.142822265625,277.886474609375)"/>
<path d="M0 0 C1.39120471 0.00015906 2.78241534 0.00585033 4.17358398 0.01586914 C4.90463852 0.01728409 5.63569305 0.01869904 6.38890076 0.02015686 C8.73253406 0.02577131 11.07607313 0.03832617 13.41967773 0.05102539 C15.00496282 0.05603853 16.59024939 0.06060176 18.17553711 0.06469727 C22.06945383 0.07574542 25.96329979 0.09301967 29.85717773 0.11352539 C29.88690674 1.97485107 29.88690674 1.97485107 29.91723633 3.8737793 C29.99349854 8.4921444 30.08218403 13.11020291 30.17456055 17.72827148 C30.21276521 19.72430351 30.24763276 21.72040238 30.27905273 23.71655273 C30.32488838 26.59130693 30.38285214 29.46560431 30.44311523 32.34008789 C30.45466644 33.22781891 30.46621765 34.11554993 30.4781189 35.03018188 C30.59012736 39.76774805 31.04132817 43.65991541 32.85717773 48.11352539 C35.82717773 48.11352539 38.79717773 48.11352539 41.85717773 48.11352539 C42.91554434 44.93842557 43.05961562 42.47070156 43.17358398 39.13305664 C43.23642578 37.38798828 43.23642578 37.38798828 43.30053711 35.60766602 C43.33985352 34.39272461 43.37916992 33.1777832 43.41967773 31.92602539 C43.48445312 30.08621094 43.48445312 30.08621094 43.55053711 28.20922852 C43.65670864 25.17744158 43.75875726 22.14557224 43.85717773 19.11352539 C41.21717773 19.11352539 38.57717773 19.11352539 35.85717773 19.11352539 C35.85717773 12.84352539 35.85717773 6.57352539 35.85717773 0.11352539 C47.73717773 0.11352539 59.61717773 0.11352539 71.85717773 0.11352539 C71.85717773 16.28352539 71.85717773 32.45352539 71.85717773 49.11352539 C73.83717773 49.11352539 75.81717773 49.11352539 77.85717773 49.11352539 C78.85717773 50.11352539 78.85717773 50.11352539 78.97070312 51.97119141 C78.9628479 53.15733032 78.9628479 53.15733032 78.95483398 54.36743164 C78.95 55.6484375 78.95 55.6484375 78.94506836 56.95532227 C78.9325 58.30207031 78.9325 58.30207031 78.91967773 59.67602539 C78.91516602 60.57772461 78.9106543 61.47942383 78.90600586 62.40844727 C78.89417998 64.64353853 78.87769994 66.87849976 78.85717773 69.11352539 C74.58657156 69.22941701 70.31636789 69.30067341 66.04467773 69.36352539 C64.82973633 69.39704102 63.61479492 69.43055664 62.36303711 69.46508789 C60.61796875 69.48442383 60.61796875 69.48442383 58.83764648 69.50415039 C57.22732544 69.53557129 57.22732544 69.53557129 55.58447266 69.56762695 C52.85717773 69.11352539 52.85717773 69.11352539 51.10839844 67.27661133 C50.69549561 66.56279297 50.28259277 65.84897461 49.85717773 65.11352539 C48.86717773 63.62852539 48.86717773 63.62852539 47.85717773 62.11352539 C47.15592773 62.87665039 46.45467773 63.63977539 45.73217773 64.42602539 C40.03079114 69.75558242 34.48569211 71.09098916 26.85717773 71.11352539 C19.42921865 70.59026947 13.36554163 68.19383647 7.85717773 63.11352539 C1.21517762 54.17598983 1.58576403 42.64349384 1.73217773 32.05102539 C1.74120117 30.80385742 1.75022461 29.55668945 1.75952148 28.27172852 C1.78291565 25.21879035 1.81569599 22.16626234 1.85717773 19.11352539 C-0.12282227 19.11352539 -2.10282227 19.11352539 -4.14282227 19.11352539 C-4.16966214 16.13429946 -4.18958264 13.15531244 -4.20532227 10.17602539 C-4.21370117 9.32588867 -4.22208008 8.47575195 -4.23071289 7.59985352 C-4.23393555 6.7909668 -4.2371582 5.98208008 -4.24047852 5.14868164 C-4.24571533 4.39981689 -4.25095215 3.65095215 -4.25634766 2.87939453 C-4.05285911 -0.28583695 -3.22005047 0.11631504 0 0 Z " fill="#2A2A2A" transform="translate(523.142822265625,277.886474609375)"/>
<path d="M0 0 C6.23297337 4.24975457 12.8451703 9.55801234 16.1484375 16.46484375 C17.30624981 22.76848854 14.53841151 27.90564362 12.046875 33.57421875 C11.75039063 34.528125 11.45390625 35.48203125 11.1484375 36.46484375 C11.8084375 37.45484375 12.4684375 38.44484375 13.1484375 39.46484375 C13.28491006 45.42712866 11.58014028 51.50862138 10.2109375 57.27734375 C8.76082774 63.52207724 7.54549869 69.71499036 6.73828125 76.08203125 C6.06532803 78.80058398 4.95819737 80.35590949 3.1484375 82.46484375 C-1.36464906 82.28785996 -3.31470423 81.9895007 -6.6015625 78.77734375 C-8.74018772 75.86231993 -10.36125566 72.75920624 -11.8515625 69.46484375 C-12.38523437 69.98433594 -12.91890625 70.50382812 -13.46875 71.0390625 C-20.03894267 77.1886719 -26.6764309 82.5486416 -35.9765625 83.08984375 C-43.85537064 82.63363733 -49.17173676 77.67195945 -54.37890625 72.14453125 C-58.6435049 67.28040016 -60.13131034 62.899044 -59.8515625 56.46484375 C-57.33519432 42.25267981 -50.39627614 28.2430903 -40.8515625 17.46484375 C-40.14 16.62308594 -39.4284375 15.78132813 -38.6953125 14.9140625 C-29.21895094 3.96107611 -15.01868754 -8.34041739 0 0 Z M-23.3515625 31.02734375 C-30.52865682 39.25989312 -38.8515625 50.10336189 -38.8515625 61.46484375 C-27.96536352 59.88458906 -20.55964281 54.09525718 -13.5390625 45.80078125 C-10.97966792 42.2579156 -9.34831106 38.5512049 -7.8515625 34.46484375 C-5.88604526 29.49932651 -5.88604526 29.49932651 -4.8515625 28.46484375 C-4.9533996 26.55059918 -4.9533996 26.55059918 -5.2890625 24.40234375 C-5.4746875 23.10296875 -5.6603125 21.80359375 -5.8515625 20.46484375 C-13.6674134 19.95277076 -18.27855688 25.6657016 -23.3515625 31.02734375 Z " fill="#2A2A2A" transform="translate(440.8515625,136.53515625)"/>
<path d="M0 0 C7.17187537 4.94295615 12.23872457 11.71617371 15 20 C15.6395996 24.90601967 16.04251425 29.73995086 13.9296875 34.3203125 C8.28146356 41.55798639 -2.04087862 46.58216304 -11 48 C-12.98438396 48.07869838 -14.97111348 48.10784044 -16.95703125 48.09765625 C-18.06884766 48.09443359 -19.18066406 48.09121094 -20.32617188 48.08789062 C-21.47666016 48.07951172 -22.62714844 48.07113281 -23.8125 48.0625 C-24.98232422 48.05798828 -26.15214844 48.05347656 -27.35742188 48.04882812 C-30.23833358 48.0370693 -33.11914044 48.02063426 -36 48 C-36.17144531 49.26972656 -36.34289062 50.53945312 -36.51953125 51.84765625 C-36.61596924 52.56187744 -36.71240723 53.27609863 -36.81176758 54.01196289 C-37.02443099 56.25803053 -36.91348099 57.92390684 -36 60 C-27.39225053 64.30387473 -13.74258644 59.91181845 -5 58 C2.9884157 56.39786649 2.9884157 56.39786649 6.625 58.5625 C8 61 8 61 8.0625 63.9375 C5.88892057 70.20252305 0.47439938 73.44121914 -5.05859375 76.640625 C-15.96333927 81.68026835 -28.3807766 82.72028765 -39.74609375 78.9140625 C-48.58274964 75.33039269 -54.20453774 68.52519215 -58 60 C-61.25469248 48.01415643 -56.78690838 35.24585605 -51.4375 24.5625 C-44.65753051 12.76159592 -35.09750743 1.4834605 -21.875 -2.9375 C-13.66970565 -4.98562339 -7.35197812 -4.33908341 0 0 Z M-23 23 C-25.16821564 25.56243667 -27.13209892 28.21229915 -29 31 C-20.8875085 31.31157506 -13.45914051 31.57224347 -6 28 C-4.76163834 26.95657219 -4.76163834 26.95657219 -4.625 24.6875 C-4.75702081 21.80626747 -4.75702081 21.80626747 -7.1875 19.75 C-14.1741894 15.4027266 -17.37569285 17.66074545 -23 23 Z " fill="#2A2A2A" transform="translate(590,139)"/>
<path d="M0 0 C3.22763774 0.00316316 6.45435956 -0.02037214 9.68188477 -0.0456543 C40.41058705 -0.14108459 40.41058705 -0.14108459 51.86352539 10.75317383 C53.66679049 13.96768988 53.99542396 15.68937016 53.30102539 19.31567383 C50.45556701 22.3183099 48.83590223 23.25257688 44.69165039 23.74145508 C43.31101911 23.7253876 41.93051973 23.68645117 40.55102539 23.62817383 C39.81891846 23.61270508 39.08681152 23.59723633 38.33251953 23.58129883 C30.31388026 23.37641504 22.3016473 22.87641829 14.30102539 22.31567383 C14.35081543 23.2512915 14.40060547 24.18690918 14.4519043 25.15087891 C14.44375111 30.2606091 13.1257857 35.02285091 11.88696289 39.95239258 C11.63660782 40.97763535 11.38625275 42.00287811 11.12831116 43.05918884 C10.59368932 45.24627628 10.05561395 47.43252195 9.51437378 49.61798096 C8.11339961 55.27501787 6.73593199 60.93775062 5.35961914 66.60083008 C5.08986771 67.70896057 4.82011627 68.81709106 4.54219055 69.95880127 C2.19115897 79.66461005 0.04353457 89.39942578 -1.91040039 99.19335938 C-4.85203493 113.65342812 -4.85203493 113.65342812 -8.57397461 117.00317383 C-10.69897461 117.31567383 -10.69897461 117.31567383 -13.01147461 116.50317383 C-17.35075131 112.97120442 -21.18502796 108.34356712 -23.69897461 103.31567383 C-24.07975078 96.83291394 -22.97298493 91.19093795 -21.43334961 84.91333008 C-20.95188169 82.87819843 -20.4705217 80.84304124 -19.98925781 78.80786133 C-19.73697418 77.75566406 -19.48469055 76.7034668 -19.22476196 75.61938477 C-14.99167238 57.93369267 -11.02969761 40.36479275 -8.69897461 22.31567383 C-9.27760254 22.38278564 -9.85623047 22.44989746 -10.45239258 22.51904297 C-27.54103141 24.46582758 -27.54103141 24.46582758 -31.94897461 22.11645508 C-35.04590993 19.55503149 -37.1901147 17.07358908 -38.69897461 13.31567383 C-38.94534073 10.61550114 -38.78963127 8.03537377 -38.69897461 5.31567383 C-27.4554128 -1.55539172 -12.65213061 -0.02592846 0 0 Z " fill="#2A2A2A" transform="translate(278.698974609375,101.684326171875)"/>
<path d="M0 0 C8.9876407 3.48500354 12.67895335 8.58054816 16.80078125 16.96484375 C19.48616018 23.76138911 19.30865723 30.97607928 19.60546875 38.1875 C19.64285156 39.00476563 19.68023437 39.82203125 19.71875 40.6640625 C19.74904297 41.40092285 19.77933594 42.1377832 19.81054688 42.89697266 C20.00175189 45.01944689 20.42806974 46.9501973 21 49 C21.42821045 47.96182129 21.8564209 46.92364258 22.29760742 45.85400391 C23.90602118 41.95727352 25.5193304 38.06258511 27.1340332 34.16845703 C27.82870419 32.49126531 28.52209317 30.81354194 29.21411133 29.13525391 C39.99587416 2.99434446 39.99587416 2.99434446 45 0 C49.7841814 0.17397023 53.15422034 1.14313511 57 4 C59.53747911 7.80621866 59.38588247 9.46020625 59 14 C58.1250087 17.26153189 56.93354403 20.36387589 55.6875 23.5 C55.33284668 24.40782227 54.97819336 25.31564453 54.61279297 26.25097656 C36.01679708 72.87237268 36.01679708 72.87237268 23 83 C19.625 84.375 19.625 84.375 16 84 C9.02112566 80.90749371 5.8100336 76.91772871 3 70 C1.72140231 66.35161537 0.6512467 62.66403404 -0.375 58.9375 C-0.67027588 57.87128418 -0.96555176 56.80506836 -1.26977539 55.70654297 C-3.67399729 46.74611137 -5.64061515 37.7227055 -7.4375 28.625 C-7.69644043 27.337146 -7.95538086 26.04929199 -8.22216797 24.72241211 C-11.12690623 9.42817767 -11.12690623 9.42817767 -10 3 C-7.1902045 -0.79335438 -4.54322621 -0.462023 0 0 Z " fill="#2A2A2A" transform="translate(474,135)"/>
<path d="M0 0 C5.8324498 0.84835633 9.36756051 4.9966988 13.0234375 9.41796875 C21.06265162 20.31505379 17.29441082 36.72739668 15.5625 49.4375 C15.458237 50.21726196 15.353974 50.99702393 15.24655151 51.80041504 C13.4474732 64.98004548 10.74264991 77.85411793 7.5 90.75 C7.2953009 91.56991425 7.09060181 92.38982849 6.87969971 93.23458862 C4.69137805 101.91199043 2.23713533 110.46358097 -0.69140625 118.921875 C-1.05346413 119.97958099 -1.05346413 119.97958099 -1.4228363 121.05865479 C-2.70611556 124.64654665 -4.06021342 127.60772866 -6.5625 130.5 C-11.36272625 130.07645062 -14.33370368 127.90583214 -17.5625 124.5 C-20.83280636 120.58566912 -22.65514905 118.14452057 -22.359375 112.89453125 C-21.55677902 107.8428977 -20.19136868 102.93690375 -18.875 98 C-11.79853326 70.49744268 -6.55325677 41.97006504 -5.94018555 13.53857422 C-5.6071239 1.09407296 -5.6071239 1.09407296 0 0 Z " fill="#2A2A2A" transform="translate(633.5625,89.5)"/>
<path d="M0 0 C0 7.92 0 15.84 0 24 C-5.32226562 25.02539062 -5.32226562 25.02539062 -10.64453125 26.05078125 C-13.84035492 26.95483847 -15.12957265 27.34202429 -17 30 C-17.88639389 32.65918166 -18.17989025 34.48064641 -18.31640625 37.23046875 C-18.35830078 38.03291016 -18.40019531 38.83535156 -18.44335938 39.66210938 C-18.48267578 40.49548828 -18.52199219 41.32886719 -18.5625 42.1875 C-18.62727539 43.4549707 -18.62727539 43.4549707 -18.69335938 44.74804688 C-18.79931518 46.83184433 -18.9001502 48.91590103 -19 51 C-17.02 51 -15.04 51 -13 51 C-13 57.6 -13 64.2 -13 71 C-25.54 71 -38.08 71 -51 71 C-51 64.73 -51 58.46 -51 52 C-48.525 51.505 -48.525 51.505 -46 51 C-46 41.1 -46 31.2 -46 21 C-47.65 21 -49.3 21 -51 21 C-51 14.73 -51 8.46 -51 2 C-46.74848477 1.83832266 -42.50308518 1.71921391 -38.25 1.625 C-37.0434375 1.57472656 -35.836875 1.52445312 -34.59375 1.47265625 C-25.85014356 1.32692948 -25.85014356 1.32692948 -23.27929688 3.36230469 C-22.171875 5.0234375 -22.171875 5.0234375 -21 8 C-20.54109375 7.59007812 -20.0821875 7.18015625 -19.609375 6.7578125 C-18.99578125 6.21898437 -18.3821875 5.68015625 -17.75 5.125 C-17.14671875 4.59132813 -16.5434375 4.05765625 -15.921875 3.5078125 C-10.25299151 -0.93972617 -8.02217884 0 0 0 Z " fill="#2A2A2A" transform="translate(516,276)"/>
<path d="M0 0 C7.42088301 4.597721 12.5810513 11.01095368 15.08203125 19.38671875 C16.87877323 28.20250883 15.02678266 35.92757208 10.21484375 43.4453125 C5.50962343 49.50049854 -0.94475911 53.24456723 -8.5 54.4375 C-17.17386003 55.18524655 -25.02740424 52.77765661 -31.875 47.3125 C-38.07495917 41.27838336 -40.76834009 35.08180991 -41.125 26.4375 C-40.87751063 19.74800796 -39.14625093 14.99167294 -35.5 9.4375 C-34.9225 8.509375 -34.345 7.58125 -33.75 6.625 C-25.3436808 -1.54781034 -10.94319566 -5.05070569 0 0 Z " fill="#2A2A2A" transform="translate(677.5,277.5625)"/>
<path d="M0 0 C2 3 2 3 2.125 6.25 C0.02480189 13.25066036 -6.22926883 16.50408265 -12.0625 20.4375 C-24.84814364 29.30116706 -28.30045934 40.89355751 -31.875 55.375 C-37.50217958 78.15754253 -37.50217958 78.15754253 -45 84 C-48.375 84.5 -48.375 84.5 -52 84 C-55.64554457 81.16457644 -57.85286793 78.48424356 -59 74 C-59.41568973 67.47080446 -58.17254638 62.40148531 -56.0625 56.25 C-55.5109037 54.58881208 -54.96009344 52.92736291 -54.41015625 51.265625 C-54.16402588 50.54149414 -53.91789551 49.81736328 -53.66430664 49.07128906 C-52.10185222 44.19960097 -51.89716806 39.79418849 -51.97265625 34.69140625 C-51.98530168 33.04101771 -51.9976627 31.39062698 -52.00976562 29.74023438 C-52.03457878 27.14861134 -52.0625695 24.55710358 -52.09594727 21.96557617 C-52.12621659 19.45751221 -52.1439432 16.949595 -52.16015625 14.44140625 C-52.17361588 13.67043106 -52.1870755 12.89945587 -52.20094299 12.1051178 C-52.22022211 7.95413152 -51.9631003 4.69279498 -50 1 C-48 -1 -48 -1 -45.25 -1.4375 C-40.69442439 -0.82424944 -39.20274083 0.72277683 -36 4 C-35.33203125 6.171875 -35.33203125 6.171875 -35 8 C-34.05898438 7.44570312 -33.11796875 6.89140625 -32.1484375 6.3203125 C-30.89079396 5.58825133 -29.63297192 4.85649675 -28.375 4.125 C-27.75753906 3.76019531 -27.14007813 3.39539063 -26.50390625 3.01953125 C-18.0470168 -1.87656264 -9.29751386 -4.30860398 0 0 Z " fill="#2A2A2A" transform="translate(382,136)"/>
<path d="M0 0 C1.41353124 2.82706248 0.58245504 4.30760504 -0.21484375 7.33984375 C-0.48876953 8.40267578 -0.76269531 9.46550781 -1.04492188 10.56054688 C-1.33947266 11.67494141 -1.63402344 12.78933594 -1.9375 13.9375 C-2.51225536 16.13329488 -3.08401066 18.32987786 -3.65234375 20.52734375 C-3.91007568 21.50437256 -4.16780762 22.48140137 -4.43334961 23.48803711 C-5.11002567 26.05856372 -5.11002567 26.05856372 -5 29 C-3.35 29.33 -1.7 29.66 0 30 C0.33 30.99 0.66 31.98 1 33 C0.67 33.66 0.34 34.32 0 35 C1.2065625 35.32613281 2.413125 35.65226562 3.65625 35.98828125 C5.27088724 36.42949026 6.88546755 36.87090766 8.5 37.3125 C9.29148437 37.52583984 10.08296875 37.73917969 10.8984375 37.95898438 C16.05791409 39.3757259 21.0165167 41.05118371 26 43 C22.5160196 45.87779334 18.97150855 48.43965382 15.125 50.8125 C14.13757813 51.43769531 13.15015625 52.06289062 12.1328125 52.70703125 C4.87757485 55.70139991 -5.00884274 51.43108922 -12.375 49.625 C-13.68359318 49.31770589 -14.99218692 49.0104142 -16.30078125 48.703125 C-17.52925781 48.40148437 -18.75773438 48.09984375 -20.0234375 47.7890625 C-21.14669434 47.51787598 -22.26995117 47.24668945 -23.42724609 46.96728516 C-24.27625488 46.64808105 -25.12526367 46.32887695 -26 46 C-27.90792653 40.2762204 -25.47443418 33.77721895 -24.125 28 C-23.95981873 27.29091492 -23.79463745 26.58182983 -23.62445068 25.85125732 C-21.63335884 17.71436734 -19.65267782 10.94853367 -12.45263672 5.94140625 C-9.03376442 4.00784642 -5.6640525 2.42622259 -2 1 C-1.34 0.67 -0.68 0.34 0 0 Z " fill="#2A2A2A" transform="translate(579,20)"/>
<path d="M0 0 C1.9375 0.5625 1.9375 0.5625 4 2 C5.1201286 7.42452215 5.152005 12.78997794 5.125 18.3125 C5.12886719 19.12267578 5.13273438 19.93285156 5.13671875 20.76757812 C5.12676222 26.74647556 5.12676222 26.74647556 4 29 C1.625 29.125 1.625 29.125 -1 29 C-4.15585919 25.84414081 -3.29482344 22.34108496 -3.32226562 18.03515625 C-3.31904297 16.86855469 -3.31582031 15.70195312 -3.3125 14.5 C-3.32861328 13.33339844 -3.34472656 12.16679687 -3.36132812 10.96484375 C-3.36197266 9.85238281 -3.36261719 8.73992187 -3.36328125 7.59375 C-3.36626221 6.56958984 -3.36924316 5.54542969 -3.37231445 4.49023438 C-3.24945068 3.66845703 -3.12658691 2.84667969 -3 2 C-2.01 1.34 -1.02 0.68 0 0 Z " fill="#2A2A2A" transform="translate(845,146)"/>
<path d="M0 0 C0.6875 1.8125 0.6875 1.8125 1 4 C-0.69192422 6.38299186 -1.87326611 6.96590038 -4.71484375 7.73046875 C-12.1991252 8.79187594 -19.44265424 9.24510311 -27 9 C-27.625 6.625 -27.625 6.625 -28 4 C-25.62903697 1.62903697 -24.63908427 1.58541396 -21.38671875 1.11328125 C-20.0090332 0.9131543 -20.0090332 0.9131543 -18.60351562 0.70898438 C-17.64123047 0.57814453 -16.67894531 0.44730469 -15.6875 0.3125 C-14.73681641 0.17005859 -13.78613281 0.02761719 -12.80664062 -0.11914062 C-11.88431641 -0.24869141 -10.96199219 -0.37824219 -10.01171875 -0.51171875 C-8.75041138 -0.68900513 -8.75041138 -0.68900513 -7.46362305 -0.86987305 C-4.80154714 -1.01048215 -2.58214093 -0.62643656 0 0 Z " fill="#2A2A2A" transform="translate(724,295)"/>
<path d="M0 0 C0.33 1.98 0.66 3.96 1 6 C-17.48795181 14.77710843 -17.48795181 14.77710843 -25 14 C-25.66 13.34 -26.32 12.68 -27 12 C-27 10.0625 -27 10.0625 -26 8 C-21.67161983 5.55834965 -17.13962792 3.87358761 -12.4375 2.3125 C-11.46780273 1.97508789 -11.46780273 1.97508789 -10.47851562 1.63085938 C-6.87731161 0.42557339 -3.79978865 -0.26985063 0 0 Z " fill="#2A2A2A" transform="translate(765,283)"/>
<path d="M0 0 C0.99 0.33 1.98 0.66 3 1 C3.7578125 3.09765625 3.7578125 3.09765625 4 6 C2.71488063 8.36592253 1.47677827 10.31091549 -0.125 12.4375 C-0.516875 12.98470703 -0.90875 13.53191406 -1.3125 14.09570312 C-2.51345804 15.75388866 -3.74999097 17.37855002 -5 19 C-5.43046631 19.57782227 -5.86093262 20.15564453 -6.30444336 20.75097656 C-7.59765625 22.41796875 -7.59765625 22.41796875 -10 25 C-13.3125 24.875 -13.3125 24.875 -16 24 C-16.24127932 21.13911668 -16.35972256 19.52810333 -14.71484375 17.11328125 C-14.12832031 16.51902344 -13.54179688 15.92476562 -12.9375 15.3125 C-9.32896029 11.46925852 -6.40310265 7.38451312 -3.48046875 3.00390625 C-2 1 -2 1 0 0 Z " fill="#2A2A2A" transform="translate(828,229)"/>
<path d="M0 0 C3.45438129 2.19783728 4.63073833 3.82353021 5.73828125 7.74609375 C6.00060547 8.66583984 6.26292969 9.58558594 6.53320312 10.53320312 C6.79037109 11.49162109 7.04753906 12.45003906 7.3125 13.4375 C7.58900391 14.39205078 7.86550781 15.34660156 8.15039062 16.33007812 C10.45259896 24.61686834 10.45259896 24.61686834 9 28 C8.01 28.33 7.02 28.66 6 29 C2.53131189 27.07358472 1.37371308 25.21423909 0.26171875 21.47265625 C-0.00060547 20.59802734 -0.26292969 19.72339844 -0.53320312 18.82226562 C-0.79037109 17.91154297 -1.04753906 17.00082031 -1.3125 16.0625 C-1.58900391 15.15564453 -1.86550781 14.24878906 -2.15039062 13.31445312 C-4.43617006 5.48983284 -4.43617006 5.48983284 -3 2 C-2.01 1.34 -1.02 0.68 0 0 Z " fill="#2A2A2A" transform="translate(836,104)"/>
<path d="M0 0 C0.763125 0.20625 1.52625 0.4125 2.3125 0.625 C2.66015625 2.83984375 2.66015625 2.83984375 2.3125 5.625 C-0.06640625 7.94140625 -0.06640625 7.94140625 -3.25 10.1875 C-3.79922119 10.57663574 -4.34844238 10.96577148 -4.91430664 11.36669922 C-6.49184772 12.47235016 -8.08925727 13.5494908 -9.6875 14.625 C-10.40679688 15.12128906 -11.12609375 15.61757813 -11.8671875 16.12890625 C-14.66549885 17.91360705 -16.27597423 18.66002347 -19.625 18.375 C-20.305625 18.1275 -20.98625 17.88 -21.6875 17.625 C-22.0175 16.305 -22.3475 14.985 -22.6875 13.625 C-19.11149692 10.68238492 -15.42841924 8.04821243 -11.5625 5.5 C-10.52867187 4.81679688 -9.49484375 4.13359375 -8.4296875 3.4296875 C-7.52476562 2.83414062 -6.61984375 2.23859375 -5.6875 1.625 C-2.6875 -0.375 -2.6875 -0.375 0 0 Z " fill="#2A2A2A" transform="translate(800.6875,262.375)"/>
<path d="M0 0 C1.32 0.66 2.64 1.32 4 2 C3.8161694 9.10254576 2.35307845 22.64692155 -3 28 C-4.66617115 28.04063832 -6.33388095 28.042721 -8 28 C-8.98352912 24.22235408 -8.94865873 21.73410826 -7.890625 17.98828125 C-7.63023437 17.06595703 -7.36984375 16.14363281 -7.1015625 15.19335938 C-6.68003906 13.76733398 -6.68003906 13.76733398 -6.25 12.3125 C-5.98445312 11.35021484 -5.71890625 10.38792969 -5.4453125 9.39648438 C-5.17976562 8.47802734 -4.91421875 7.55957031 -4.640625 6.61328125 C-4.27759277 5.35704956 -4.27759277 5.35704956 -3.90722656 4.07543945 C-3 2 -3 2 0 0 Z " fill="#2A2A2A" transform="translate(843,189)"/>
<path d="M0 0 C3.25498123 0.12681745 4.59910196 0.57192243 6.84375 2.96875 C8.5867703 5.63261121 10.32128635 8.29498187 12 11 C12.5259375 11.82113281 13.051875 12.64226562 13.59375 13.48828125 C17.09780516 19.27970575 17.09780516 19.27970575 16.625 22.76171875 C16.315625 23.86966797 16.315625 23.86966797 16 25 C13.69238281 25.25097656 13.69238281 25.25097656 11 25 C9.34667969 23.31933594 9.34667969 23.31933594 7.921875 20.984375 C7.40109375 20.14519531 6.8803125 19.30601563 6.34375 18.44140625 C5.8178125 17.55324219 5.291875 16.66507813 4.75 15.75 C4.20859375 14.87730469 3.6671875 14.00460938 3.109375 13.10546875 C-1.60259689 5.38961478 -1.60259689 5.38961478 -2 2 C-1.34 1.34 -0.68 0.68 0 0 Z " fill="#2A2A2A" transform="translate(814,67)"/>
<path d="M0 0 C6.75813029 0.57597701 10.75959577 4.01457931 16 8 C16.65226563 8.46148437 17.30453125 8.92296875 17.9765625 9.3984375 C19.625 10.625 19.625 10.625 22 13 C22.375 15.8125 22.375 15.8125 22 18 C19.796875 18.72265625 19.796875 18.72265625 17 19 C14.640625 17.55859375 14.640625 17.55859375 12.25 15.4375 C7.71002569 11.55875318 3.03041131 8.20779851 -2 5 C-1.125 1.125 -1.125 1.125 0 0 Z " fill="#2A2A2A" transform="translate(783,39)"/>
<path d="M0 0 C17.75910035 1.8020691 17.75910035 1.8020691 23.07421875 7.1171875 C22.69921875 9.2421875 22.69921875 9.2421875 22.07421875 11.1171875 C16.39443192 12.58255232 12.30258709 11.09887785 6.82421875 9.4296875 C5.90125 9.17251953 4.97828125 8.91535156 4.02734375 8.65039062 C2.7125 8.2569043 2.7125 8.2569043 1.37109375 7.85546875 C0.57026367 7.61868408 -0.23056641 7.38189941 -1.05566406 7.13793945 C-2.92578125 6.1171875 -2.92578125 6.1171875 -3.81933594 4.13354492 C-3.85446289 3.46814697 -3.88958984 2.80274902 -3.92578125 2.1171875 C-1.92578125 0.1171875 -1.92578125 0.1171875 0 0 Z " fill="#2A2A2A" transform="translate(747.92578125,25.8828125)"/>
<path d="M0 0 C0.33 1.65 0.66 3.3 1 5 C-3.85540633 7.25386763 -8.76149828 9.36989485 -13.75 11.3125 C-14.63171875 11.65925781 -15.5134375 12.00601563 -16.421875 12.36328125 C-19.32492615 13.08024691 -21.14616747 12.79558281 -24 12 C-24.33 10.68 -24.66 9.36 -25 8 C-21.58363864 5.04319994 -17.85674555 3.69114939 -13.625 2.3125 C-12.97789062 2.08755859 -12.33078125 1.86261719 -11.6640625 1.63085938 C-7.65389409 0.30087408 -4.21554035 -0.24144736 0 0 Z " fill="#2A2A2A" transform="translate(615,35)"/>
<path d="M0 0 C-0.33 1.65 -0.66 3.3 -1 5 C-3.87333181 5.67466072 -6.74831482 6.3399234 -9.625 7 C-10.43324219 7.19078125 -11.24148438 7.3815625 -12.07421875 7.578125 C-16.47204169 8.57925543 -20.45561039 9.2353082 -25 9 C-25.625 6.625 -25.625 6.625 -26 4 C-22.76402416 0.76402416 -18.51414958 0.62413638 -14.125 -0.25 C-13.21363281 -0.44851562 -12.30226563 -0.64703125 -11.36328125 -0.8515625 C-10.48285156 -1.02945312 -9.60242188 -1.20734375 -8.6953125 -1.390625 C-7.4889917 -1.6386084 -7.4889917 -1.6386084 -6.25830078 -1.89160156 C-3.59705559 -2.01934133 -2.2491208 -1.36813471 0 0 Z " fill="#2A2A2A" transform="translate(654,27)"/>
<path d="M0 0 C0.38218767 1.65614657 0.71395102 3.32457024 1 5 C-1.55742601 7.55742601 -7.9196141 6.92683441 -11.375 7.25 C-12.44234375 7.36601562 -13.5096875 7.48203125 -14.609375 7.6015625 C-15.63289062 7.69695313 -16.65640625 7.79234375 -17.7109375 7.890625 C-18.65243652 7.98375977 -19.59393555 8.07689453 -20.56396484 8.17285156 C-23 8 -23 8 -24.83056641 6.50683594 C-25.21647949 6.00958008 -25.60239258 5.51232422 -26 5 C-25.3125 3.0625 -25.3125 3.0625 -24 1 C-20.07201025 -0.08037605 -16.05136261 -0.31940153 -12 -0.625 C-10.205625 -0.76808594 -10.205625 -0.76808594 -8.375 -0.9140625 C-5.35513571 -0.99095719 -2.91255437 -0.739171 0 0 Z " fill="#2A2A2A" transform="translate(692,22)"/>
<path d="M0 0 C0.825 0.04576172 1.65 0.09152344 2.5 0.13867188 C3.35851562 0.20248047 4.21703125 0.26628906 5.1015625 0.33203125 C5.95234375 0.37650391 6.803125 0.42097656 7.6796875 0.46679688 C12.05678845 0.7429224 15.73953786 1.15101893 19.7265625 3.14453125 C19.7265625 4.79453125 19.7265625 6.44453125 19.7265625 8.14453125 C14.81583031 9.63106527 10.14310326 8.90765284 5.1015625 8.45703125 C4.13476562 8.39064453 3.16796875 8.32425781 2.171875 8.25585938 C0.78742187 8.13307617 0.78742187 8.13307617 -0.625 8.0078125 C-1.89077881 7.90400269 -1.89077881 7.90400269 -3.18212891 7.7980957 C-5.2734375 7.14453125 -5.2734375 7.14453125 -6.56396484 5.09057617 C-6.79809082 4.44838135 -7.0322168 3.80618652 -7.2734375 3.14453125 C-4.93139104 0.31227823 -3.64774582 -0.21870769 0 0 Z " fill="#2A2A2A" transform="translate(712.2734375,20.85546875)"/>
</svg>
